<?xml version="1.0" encoding="UTF-8"?>
<svg version="1.1" xmlns="http://www.w3.org/2000/svg" width="512" height="512">
<path d="M0 0 C1.48306641 -0.01546875 1.48306641 -0.01546875 2.99609375 -0.03125 C12.44412819 1.37612424 20.43586853 5.86198038 28.5 10.75 C30.61247275 12.00656854 32.72578933 13.2617193 34.83984375 14.515625 C36.48509033 15.49499023 36.48509033 15.49499023 38.16357422 16.49414062 C43.34037334 19.54920323 48.56344352 22.52162938 53.78915405 25.49185181 C64.10727169 31.35770763 74.38452931 37.29041366 84.62939453 43.28344727 C95.15334625 49.43766742 105.71630137 55.52369996 116.28027344 61.60888672 C122.78837919 65.35864774 129.29376435 69.11312876 135.79882812 72.86816406 C141.28734246 76.03588707 146.77816785 79.19947716 152.2734375 82.35546875 C157.69599397 85.47045343 163.109024 88.60149785 168.51757812 91.74072266 C171.45696346 93.43902371 174.40730141 95.11685147 177.359375 96.79296875 C198.44316006 108.89966608 198.44316006 108.89966608 202.5625 121.5 C203.74828232 126.07721961 203.70786289 130.61423633 203.70294189 135.31010437 C203.70739858 136.64125069 203.70739858 136.64125069 203.7119453 137.99928886 C203.72061718 140.9730869 203.72213927 143.94684461 203.72363281 146.9206543 C203.72826207 149.05292344 203.73328688 151.18519175 203.73867798 153.31745911 C203.75179403 159.11103781 203.75824546 164.90460494 203.76268864 170.69819617 C203.76562079 174.31902519 203.76972589 177.93985105 203.77419281 181.56067848 C203.78786598 192.892939 203.79753338 204.22519229 203.8013947 215.55746049 C203.80587439 228.63220313 203.82341899 241.70684118 203.8523953 254.78155202 C203.87402345 264.89213102 203.8840996 275.00268062 203.88543582 285.1132825 C203.88648308 291.1498341 203.89237413 297.18628735 203.91025543 303.22281456 C203.9267555 308.90355372 203.92888212 314.5841208 203.92011642 320.26487541 C203.91934708 322.34572053 203.92367521 324.42657498 203.93357468 326.5073967 C203.94633172 329.35679343 203.94039693 332.20558413 203.92999268 335.05497742 C203.94207728 336.27850899 203.94207728 336.27850899 203.95440602 337.52675837 C203.87284926 347.13319937 201.24919261 355.46367641 194.5625 362.5 C189.24287667 367.46554381 183.12431598 370.80820297 176.8125 374.375 C175.06454004 375.37300811 173.31658499 376.37102496 171.56893921 377.36958313 C169.76149739 378.40134717 167.95265163 379.43061396 166.14355469 380.45947266 C160.56126268 383.63682682 155.00002059 386.85070145 149.4375 390.0625 C148.36000488 390.68374756 147.28250977 391.30499512 146.17236328 391.94506836 C138.99643431 396.08494446 131.83831144 400.25442367 124.6875 404.4375 C115.41750223 409.85921178 106.10418248 415.20204915 96.77404785 420.51922607 C87.65338094 425.71833683 78.56869408 430.97622388 69.5065918 436.27685547 C59.98503037 441.84447446 50.43699033 447.36540794 40.875 452.86328125 C36.74051899 455.24060783 32.61633694 457.63437356 28.5 460.04296875 C26.62502372 461.13285331 24.75002492 462.22269913 22.875 463.3125 C22.03235596 463.81023926 21.18971191 464.30797852 20.3215332 464.82080078 C11.10475427 470.15381523 1.73307968 472.33903723 -8.8671875 469.953125 C-24.03048405 464.39150066 -38.23297922 454.32581001 -52.1015625 446.203125 C-58.49031992 442.46365411 -64.89866076 438.75874966 -71.3125 435.0625 C-72.39208984 434.44028564 -73.47167969 433.81807129 -74.58398438 433.17700195 C-76.7743252 431.91488483 -78.96475502 430.65292215 -81.15527344 429.39111328 C-86.58409942 426.26319852 -92.01069281 423.13141552 -97.4375 420 C-99.60415583 418.74998121 -101.7708225 417.49998122 -103.9375 416.25 C-116.9375 408.75 -129.9375 401.25 -142.9375 393.75 C-144.54842529 392.8209082 -144.54842529 392.8209082 -146.19189453 391.87304688 C-148.34458609 390.6307233 -150.4966119 389.38724537 -152.64794922 388.14257812 C-157.67776772 385.23439245 -162.71303469 382.33752938 -167.77349854 379.48303223 C-169.55638693 378.47661083 -171.33708611 377.46641959 -173.1171875 376.45507812 C-175.34470823 375.1910485 -177.57623384 373.93403922 -179.8125 372.68554688 C-195.65726753 363.66451193 -195.65726753 363.66451193 -199.375 355.25 C-199.75527344 354.41984375 -200.13554687 353.5896875 -200.52734375 352.734375 C-202.68679702 347.43305625 -202.72836491 342.78499708 -202.8125 337.125 C-202.84988281 336.17882812 -202.88726562 335.23265625 -202.92578125 334.2578125 C-203.0144132 327.24604084 -203.0144132 327.24604084 -200.0390625 323.3984375 C-195.90343951 320.38055045 -192.50947335 319.78933963 -187.4375 320.5 C-183.87339036 322.66945804 -181.94523606 324.64544 -180.4375 328.5 C-180.06764887 332.06402001 -179.93291852 335.60812298 -179.78125 339.1875 C-179.4477784 342.4009536 -179.15979191 343.84796953 -177.4375 346.5 C-175.16998565 348.19816608 -175.16998565 348.19816608 -172.3984375 349.6796875 C-171.35574707 350.27128662 -170.31305664 350.86288574 -169.23876953 351.47241211 C-168.10810059 352.10026611 -166.97743164 352.72812012 -165.8125 353.375 C-164.62936632 354.04249863 -163.44692088 354.71121851 -162.26513672 355.38110352 C-159.83573728 356.75763173 -157.40395448 358.12980567 -154.97070312 359.49951172 C-149.79938833 362.41841215 -144.68283487 365.43037415 -139.5625 368.4375 C-130.88584059 373.51437612 -122.17142742 378.5225973 -113.4375 383.5 C-103.71634383 389.0400173 -94.02855342 394.63374809 -84.37060547 400.28344727 C-73.86704565 406.42574259 -63.32470926 412.50025862 -52.78125 418.57373047 C-48.16972575 421.23034016 -43.5589786 423.88829557 -38.94873047 426.54711914 C-36.77085118 427.80312898 -34.59280494 429.05884939 -32.41455078 430.31420898 C-25.40895527 434.35407607 -18.42304667 438.42509778 -11.4375 442.5 C-11.1075 375.18 -10.7775 307.86 -10.4375 238.5 C-13.4075 237.51 -13.4075 237.51 -16.4375 236.5 C-18.90094691 235.15191557 -21.2924508 233.77177781 -23.6875 232.3125 C-25.20631236 231.40374535 -26.72589452 230.49627648 -28.24609375 229.58984375 C-29.0747998 229.09468262 -29.90350586 228.59952148 -30.75732422 228.08935547 C-35.72950401 225.14083202 -40.74100237 222.26038116 -45.75 219.375 C-47.39863037 218.42439697 -47.39863037 218.42439697 -49.08056641 217.45458984 C-57.8199415 212.42031819 -66.57854388 207.42014304 -75.3397522 202.42401123 C-84.38057341 197.26675557 -93.38193912 192.0450389 -102.36425781 186.78662109 C-111.156542 181.64689633 -119.99706797 176.59316265 -128.84423828 171.54882812 C-138.10533705 166.26758925 -147.34366744 160.9480236 -156.57519531 155.61523438 C-164.18322444 151.22096217 -171.80153527 146.84555811 -179.4375 142.5 C-179.45208252 143.10996826 -179.46666504 143.71993652 -179.48168945 144.34838867 C-179.55644775 147.12871064 -179.65301482 149.90786824 -179.75 152.6875 C-179.77255859 153.64720703 -179.79511719 154.60691406 -179.81835938 155.59570312 C-180.05574172 161.8323846 -180.80775924 165.56682762 -185.0625 170.3125 C-188.78572642 172.17411321 -192.36316692 172.1754242 -196.4375 171.5 C-199.30779869 169.70606332 -200.92881638 168.51736724 -202.4375 165.5 C-202.57364268 162.48195143 -202.65034827 159.48825274 -202.67578125 156.46875 C-202.683853 155.56306274 -202.69192474 154.65737549 -202.70024109 153.72424316 C-202.71409182 151.80088213 -202.72480953 149.87749642 -202.73266602 147.95410156 C-202.74976985 145.03922312 -202.79363301 142.12551153 -202.83789062 139.2109375 C-202.94733916 126.74320511 -202.56528813 116.87018265 -193.59326172 107.37207031 C-189.32751704 103.66768411 -184.43945866 101.07137708 -179.5 98.375 C-177.75138426 97.39404525 -176.00278147 96.41306586 -174.25521851 95.43023682 C-172.47212519 94.42938942 -170.68569278 93.43470054 -168.89892578 92.44042969 C-163.70477926 89.52865958 -158.57174084 86.51572884 -153.4375 83.5 C-141.89191914 76.75008543 -130.30845611 70.06659322 -118.71972656 63.39111328 C-113.29090058 60.26319852 -107.86430719 57.13141552 -102.4375 54 C-100.27084417 52.74998121 -98.1041775 51.49998122 -95.9375 50.25 C-94.865 49.63125 -93.7925 49.0125 -92.6875 48.375 C-89.4375 46.5 -86.1875 44.625 -82.9375 42.75 C-81.86459717 42.1310083 -80.79169434 41.5120166 -79.6862793 40.87426758 C-77.52371417 39.6266526 -75.36111661 38.37909384 -73.19848633 37.1315918 C-66.60776694 33.32965463 -60.01831967 29.52552371 -53.4296875 25.7199707 C-50.17696829 23.84249618 -46.92260686 21.96789565 -43.66796875 20.09375 C-39.60106745 17.75141678 -35.54185421 15.39656551 -31.48828125 13.03125 C-29.63808257 11.95822687 -27.78782531 10.88530476 -25.9375 9.8125 C-25.11983154 9.33143799 -24.30216309 8.85037598 -23.4597168 8.35473633 C-16.16822003 4.14356024 -8.61885906 -0.08966303 0 0 Z M-7.55078125 25.0703125 C-8.53876709 25.62968506 -9.52675293 26.18905762 -10.54467773 26.76538086 C-11.60243408 27.37905518 -12.66019043 27.99272949 -13.75 28.625 C-14.85867432 29.25736572 -15.96734863 29.88973145 -17.10961914 30.54125977 C-20.55993176 32.51471828 -23.9999526 34.50440339 -27.4375 36.5 C-28.46004883 37.09248535 -29.48259766 37.6849707 -30.53613281 38.29541016 C-35.48043117 41.1640131 -40.41649656 44.04637741 -45.34765625 46.9375 C-51.65320465 50.63213337 -57.98047534 54.2884724 -64.3125 57.9375 C-65.39120361 58.55931152 -66.46990723 59.18112305 -67.58129883 59.82177734 C-71.96326772 62.34711251 -76.34590777 64.87128175 -80.72851562 67.39550781 C-84.00681062 69.28398493 -87.28478485 71.17301666 -90.5625 73.0625 C-91.64144531 73.68447266 -92.72039062 74.30644531 -93.83203125 74.94726562 C-101.98499188 79.65165145 -110.11404485 84.39606758 -118.23852539 89.14941406 C-125.52288949 93.40296987 -132.84065163 97.59530738 -140.17034912 101.76998901 C-152.46256817 108.76426366 -152.46256817 108.76426366 -164.6875 115.875 C-165.5993103 116.40154175 -165.5993103 116.40154175 -166.52954102 116.9387207 C-167.86762131 117.73581021 -169.15991406 118.60916627 -170.4375 119.5 C-170.4375 120.16 -170.4375 120.82 -170.4375 121.5 C-169.7254541 121.90613525 -169.0134082 122.31227051 -168.27978516 122.73071289 C-143.90919941 136.63476929 -143.90919941 136.63476929 -132.13061523 143.43652344 C-129.96812462 144.68261102 -127.80228043 145.92289755 -125.63305664 147.15722656 C-120.64723476 150.00451343 -115.75415449 152.90752156 -110.9765625 156.09375 C-110.13037354 156.63926514 -109.28418457 157.18478027 -108.41235352 157.74682617 C-106.86152611 158.75334941 -105.33301303 159.79560472 -103.83569336 160.88012695 C-101.6054639 162.30164649 -100.06082478 163.12281248 -97.4375 163.5 C-93.36227098 162.14068567 -90.01155698 159.84614892 -86.4375 157.5 C-84.54643065 156.43241088 -82.64653171 155.38031646 -80.73828125 154.34375 C-68.25429143 147.38374137 -55.85837264 140.28964947 -43.52734375 133.0625 C-37.22179535 129.36786663 -30.89452466 125.7115276 -24.5625 122.0625 C-23.48379639 121.44068848 -22.40509277 120.81887695 -21.29370117 120.17822266 C-16.91173228 117.65288749 -12.52909223 115.12871825 -8.14648438 112.60449219 C4.41990058 105.36556752 16.97304914 98.10556287 29.49316406 90.78686523 C34.81783401 87.67669787 40.14942524 84.57898645 45.4921875 81.5 C46.07333313 81.16508545 46.65447876 80.8301709 47.25323486 80.48510742 C50.05461183 78.87126114 52.85690788 77.25903111 55.66015625 75.6484375 C62.00227743 71.99910542 68.303301 68.28987818 74.5625 64.5 C71.32983025 61.8091852 68.13472803 59.56115192 64.44921875 57.5390625 C63.46058838 56.99217773 62.47195801 56.44529297 61.45336914 55.88183594 C60.39625732 55.30208008 59.33914551 54.72232422 58.25 54.125 C49.4793784 49.26845009 40.76967208 44.32736285 32.125 39.25 C28.27265417 36.99687174 24.41831057 34.74719346 20.5625 32.5 C19.66724609 31.97760742 18.77199219 31.45521484 17.84960938 30.91699219 C15.36480988 29.47417545 12.8717575 28.04699776 10.375 26.625 C9.65062744 26.20186523 8.92625488 25.77873047 8.17993164 25.34277344 C1.9959767 21.85655679 -1.40489641 21.55007008 -7.55078125 25.0703125 Z M90.93359375 80.03515625 C89.99467285 80.58937256 89.05575195 81.14358887 88.08837891 81.71459961 C87.06921387 82.32440674 86.05004883 82.93421387 85 83.5625 C82.80899757 84.85745433 80.61757723 86.15170178 78.42578125 87.4453125 C77.29092285 88.11723633 76.15606445 88.78916016 74.98681641 89.48144531 C69.57548019 92.67130186 64.13209648 95.80486218 58.6875 98.9375 C56.50256709 100.19655024 54.31767147 101.4556652 52.1328125 102.71484375 C50.50520996 103.65239502 50.50520996 103.65239502 48.84472656 104.60888672 C43.41590058 107.73680148 37.98930719 110.86858448 32.5625 114 C30.39584417 115.25001879 28.2291775 116.50001878 26.0625 117.75 C24.99 118.36875 23.9175 118.9875 22.8125 119.625 C13.0625 125.25 13.0625 125.25 9.81201172 127.12524414 C7.64692929 128.37435518 5.48189018 129.62354129 3.31689453 130.87280273 C-2.12365706 134.01202309 -7.56497216 137.14990563 -13.0078125 140.28515625 C-25.65317527 147.57111923 -38.28480991 154.87960586 -50.87890625 162.25390625 C-54.48111291 164.36253026 -58.09262242 166.45330235 -61.71484375 168.52734375 C-62.51784912 168.99035889 -63.32085449 169.45337402 -64.14819336 169.93041992 C-65.63387938 170.78678474 -67.12280913 171.63755572 -68.61547852 172.48168945 C-70.25637944 173.43207458 -71.85312708 174.45810259 -73.4375 175.5 C-73.4375 176.16 -73.4375 176.82 -73.4375 177.5 C-72.49003906 178.0261792 -72.49003906 178.0261792 -71.5234375 178.56298828 C-59.74828353 185.11016053 -48.01043293 191.7071824 -36.375 198.5 C-35.39950195 199.06187012 -34.42400391 199.62374023 -33.41894531 200.20263672 C-28.18475165 203.23282348 -23.06802277 206.37156338 -18.01953125 209.703125 C-16.95935791 210.37988281 -15.89918457 211.05664062 -14.80688477 211.75390625 C-12.78043659 213.05063007 -10.77743258 214.38502037 -8.80444336 215.76171875 C-5.95082151 217.55638034 -3.73694738 218.78824821 -0.4375 219.5 C4.0921797 218.28716417 7.67098835 216.06643256 11.5625 213.5 C12.88391542 212.74407981 14.20886619 211.99426551 15.5390625 211.25390625 C16.75737381 210.52705494 17.97346136 209.79646557 19.1875 209.0625 C20.65169101 208.19030953 22.11658264 207.31929455 23.58203125 206.44921875 C24.76853271 205.74418213 24.76853271 205.74418213 25.97900391 205.02490234 C30.92381543 202.10623926 35.90035292 199.24241395 40.875 196.375 C41.97457031 195.74094238 43.07414062 195.10688477 44.20703125 194.45361328 C52.94604654 189.41989025 61.70405223 184.41985315 70.4647522 179.42401123 C78.52348741 174.82697775 86.55586382 170.18723496 94.5625 165.5 C103.15772832 160.46819216 111.78569175 155.49623478 120.4375 150.5625 C129.86518051 145.18565102 139.28468091 139.79523405 148.6875 134.375 C150.25927002 133.47019897 150.25927002 133.47019897 151.86279297 132.54711914 C154.76676667 130.87164135 157.66563737 129.18773736 160.5625 127.5 C161.52768555 126.9421582 162.49287109 126.38431641 163.48730469 125.80957031 C164.85097168 125.0105127 164.85097168 125.0105127 166.2421875 124.1953125 C167.05155762 123.72367676 167.86092773 123.25204102 168.69482422 122.76611328 C170.70279628 121.62724226 170.70279628 121.62724226 171.5625 119.5 C170.56005249 118.9423999 170.56005249 118.9423999 169.53735352 118.37353516 C146.82862819 105.73052003 146.82862819 105.73052003 136.19458008 99.41625977 C128.29953266 94.73308071 120.33743868 90.1660702 112.38110352 85.58813477 C111.31174561 84.97252686 110.2423877 84.35691895 109.140625 83.72265625 C108.18575195 83.17359619 107.23087891 82.62453613 106.24707031 82.05883789 C104.44214121 81.01077747 102.65982741 79.92286924 100.90136719 78.79858398 C96.78323882 76.51212002 94.69777258 77.79269022 90.93359375 80.03515625 Z M174.6640625 144.21875 C173.6416748 144.81308838 172.61928711 145.40742676 171.56591797 146.01977539 C170.45104004 146.67324951 169.33616211 147.32672363 168.1875 148 C166.41842949 149.03043029 164.64841651 150.0592282 162.87832642 151.08790588 C161.64577416 151.80426411 160.41349961 152.52110034 159.18148804 153.23838806 C153.20541771 156.71557122 147.2009117 160.14197946 141.19256592 163.56298828 C131.95293178 168.82496876 122.73874693 174.12805297 113.5625 179.5 C104.96727328 184.5318069 96.3393787 189.50389072 87.6875 194.4375 C75.38560037 201.4527183 63.11211691 208.51595972 50.85058594 215.6015625 C47.40452544 217.59120955 43.9564299 219.57728998 40.5078125 221.5625 C39.3334809 222.23882453 38.15916435 222.91517519 36.98486328 223.59155273 C34.7778857 224.86255644 32.57055524 226.13294771 30.36279297 227.40258789 C29.35619629 227.98258545 28.34959961 228.56258301 27.3125 229.16015625 C26.44109375 229.66168213 25.5696875 230.16320801 24.671875 230.67993164 C23.64578125 231.2805542 22.6196875 231.88117676 21.5625 232.5 C20.34913688 232.89992959 20.34913688 232.89992959 19.11126137 233.30793858 C15.82595562 234.65153844 13.93837242 235.83522789 11.5625 238.5 C10.02295762 244.93616119 10.29864404 251.32398061 10.42724609 257.90771484 C10.43006753 259.91842508 10.42848213 261.92914561 10.42282104 263.93984985 C10.41995146 269.39476922 10.47874331 274.84749018 10.54856062 280.30189848 C10.61107093 286.00328647 10.6169476 291.7047248 10.6288147 297.40640259 C10.65989719 308.20147579 10.74195942 318.99553637 10.84230959 329.79016364 C10.95408094 342.08013122 11.00906522 354.37014716 11.05926394 366.66049647 C11.16379238 391.94089242 11.33968603 417.22038948 11.5625 442.5 C15.49445472 441.2282356 18.92905837 439.88267032 22.484375 437.76953125 C23.41362793 437.22176025 24.34288086 436.67398926 25.30029297 436.10961914 C26.29432129 435.51656982 27.28834961 434.92352051 28.3125 434.3125 C30.47617549 433.03580222 32.64025166 431.75978329 34.8046875 430.484375 C36.47869629 429.4953418 36.47869629 429.4953418 38.18652344 428.48632812 C43.58376384 425.31074612 49.01016651 422.18628131 54.4375 419.0625 C56.61979858 417.80469949 58.8020902 416.54688692 60.984375 415.2890625 C64.2740029 413.39405701 67.56375929 411.4992747 70.85351562 409.60449219 C82.43931766 402.93043688 94.01803353 396.24535916 105.5625 389.5 C113.84032245 384.6633204 122.13203199 379.85155757 130.4375 375.0625 C131.50540771 374.44640869 132.57331543 373.83031738 133.67358398 373.19555664 C138.73921411 370.27467194 143.80723127 367.35808038 148.8817749 364.45271301 C150.65434277 363.43749165 152.42616231 362.42097661 154.19775391 361.40405273 C156.41338136 360.1327264 158.63041074 358.86383879 160.84912109 357.59790039 C163.76784228 355.92157951 166.6682913 354.21822761 169.5625 352.5 C170.43245605 351.99871582 171.30241211 351.49743164 172.19873047 350.98095703 C173.39780029 350.24981689 173.39780029 350.24981689 174.62109375 349.50390625 C175.31388428 349.09084229 176.0066748 348.67777832 176.72045898 348.25219727 C180.4360415 344.71783865 181.47039552 340.48645082 181.93164349 335.54642582 C181.94410761 334.07812502 181.94037031 332.60962673 181.92326355 331.14137268 C181.92582682 330.32684834 181.9283901 329.512324 181.93103105 328.6731171 C181.93595141 325.95838691 181.91950512 323.24421951 181.90307617 320.52954102 C181.90222952 318.57779453 181.90270578 316.62604708 181.90440369 314.67430115 C181.90526358 309.38554412 181.88763865 304.09699167 181.86668181 298.80828214 C181.84791411 293.27762978 181.84616449 287.74697262 181.84260559 282.21629333 C181.83328542 271.74752135 181.80867195 261.27884346 181.77855712 250.81011289 C181.7450123 238.88999714 181.72852688 226.96987686 181.71347082 215.04972565 C181.68212242 190.53309828 181.6293624 166.01655442 181.5625 141.5 C178.7048642 141.5 177.12864051 142.77766198 174.6640625 144.21875 Z " fill="#000000" transform="translate(298.4375,20.5)"/>
<path d="M0 0 C0.85651657 -0.00708481 1.71303314 -0.01416962 2.59550476 -0.02146912 C3.99281326 -0.01775299 3.99281326 -0.01775299 5.41835022 -0.01396179 C6.89947548 -0.02162819 6.89947548 -0.02162819 8.41052246 -0.02944946 C11.67629549 -0.04335567 14.94185773 -0.04238793 18.20765686 -0.04008484 C20.47682779 -0.04397112 22.74599798 -0.04830565 25.01516724 -0.05307007 C29.7723069 -0.06053444 34.52937235 -0.06023934 39.28651428 -0.05497742 C45.38428053 -0.04918174 51.48174315 -0.06611533 57.57945919 -0.08932209 C62.26602964 -0.10404974 66.9525268 -0.10493245 71.63911629 -0.10181236 C73.88739689 -0.10232603 76.13568155 -0.10757234 78.38393974 -0.11762428 C81.5271214 -0.12995269 84.6697094 -0.12321835 87.81288147 -0.11161804 C88.74239624 -0.11926178 89.67191101 -0.12690552 90.6295929 -0.13478088 C95.49931572 -0.09503189 98.69934225 0.14123645 102.68031311 3.26069641 C103.26941467 3.71702454 103.85851624 4.17335266 104.46546936 4.64350891 C106.59422879 7.47729156 106.13836998 10.39456706 106.04359436 13.81147766 C105.53874325 17.21515125 104.19349803 18.9692631 101.68031311 21.26069641 C99.36712174 22.4172921 98.02446075 22.39604116 95.44927979 22.41459656 C94.56185593 22.42319702 93.67443207 22.43179749 92.76011658 22.44065857 C91.78398407 22.44491852 90.80785156 22.44917847 89.80213928 22.4535675 C88.77600021 22.461745 87.74986115 22.46992249 86.69262695 22.47834778 C83.28618459 22.50322461 79.87978393 22.5197229 76.47328186 22.53413391 C75.31190516 22.53945759 74.15052845 22.54478127 72.95395851 22.55026627 C66.8079812 22.57700664 60.66202428 22.59637952 54.51600647 22.61079407 C48.16023223 22.62745216 41.80497547 22.67223778 35.44939709 22.72316551 C30.56896349 22.75678022 25.68865364 22.76836517 20.80811501 22.77402115 C18.46490329 22.78074861 16.12170014 22.79600914 13.77860069 22.81991196 C10.50085834 22.85144384 7.22452402 22.85161784 3.94667053 22.8441925 C2.97661072 22.86059784 2.0065509 22.87700317 1.00709534 22.89390564 C-3.6245991 22.8508993 -5.6475343 22.78213028 -9.40835571 19.86460876 C-12.20664167 16.05234878 -12.74732211 12.9317888 -12.31968689 8.26069641 C-9.49826753 2.51336069 -6.38526909 0.01766589 0 0 Z " fill="#000000" transform="translate(22.319686889648438,297.7393035888672)"/>
<path d="M0 0 C0.85507141 -0.00997513 1.71014282 -0.01995026 2.59112549 -0.03022766 C3.52109344 -0.03089233 4.4510614 -0.03155701 5.40921021 -0.03224182 C6.39502075 -0.04056534 7.3808313 -0.04888885 8.39651489 -0.0574646 C11.65745994 -0.08157282 14.91820501 -0.09033754 18.17922974 -0.09693909 C20.44600485 -0.10590436 22.71277934 -0.11502618 24.97955322 -0.1242981 C29.73248737 -0.14079259 34.48535104 -0.14848914 39.23831177 -0.15138245 C45.3271768 -0.15676848 51.41537912 -0.19445645 57.50405693 -0.24012661 C62.18638527 -0.26987458 66.86855354 -0.27710551 71.55096817 -0.2781086 C73.79565595 -0.28231489 76.04034403 -0.29476548 78.28493881 -0.31562614 C81.42581636 -0.3424942 84.56515126 -0.33772814 87.70608521 -0.32521057 C88.6320047 -0.34004486 89.55792419 -0.35487915 90.51190186 -0.37016296 C94.8744029 -0.32067609 97.78211286 -0.11039821 101.24835205 2.68661499 C104.567321 6.2081627 105.08194779 8.29211681 105.04641724 13.16868591 C104.4112241 16.89008919 102.34725207 18.67728315 99.68704224 21.27415466 C97.40683493 22.41425831 96.14124629 22.40446548 93.60786438 22.41459656 C92.75409714 22.4203067 91.9003299 22.42601685 91.02069092 22.43190002 C90.08196136 22.43301788 89.14323181 22.43413574 88.17605591 22.43528748 C87.18893112 22.44025238 86.20180634 22.44521729 85.18476868 22.45033264 C81.90817577 22.46497787 78.63163129 22.47176039 75.35501099 22.47727966 C73.08298236 22.48302941 70.81095376 22.48878716 68.53892517 22.49455261 C63.76985446 22.50506949 59.00080065 22.51090758 54.23171997 22.51438904 C48.11822261 22.51987354 42.004948 22.54389792 35.8915205 22.57236099 C31.19637905 22.5909777 26.50129134 22.59619247 21.8061161 22.59772491 C19.55224706 22.60075442 17.29837903 22.60879294 15.04454613 22.6219101 C11.89159549 22.63894921 8.73919006 22.63709532 5.58621216 22.63059998 C4.6535553 22.63981476 3.72089844 22.64902954 2.75997925 22.65852356 C-2.08981173 22.62719859 -5.37982739 22.44574902 -9.31295776 19.27415466 C-11.6715324 16.24170155 -11.67229692 13.01349652 -11.56686401 9.23899841 C-11.18938308 6.31787674 -10.17154404 4.53100943 -8.31295776 2.27415466 C-5.45750388 0.54258581 -3.31963271 0.02084233 0 0 Z " fill="#000000" transform="translate(34.312957763671875,212.72584533691406)"/>
<path d="M0 0 C1.83749565 -0.01925285 1.83749565 -0.01925285 3.71211243 -0.03889465 C5.05571082 -0.04706237 6.39931378 -0.05450604 7.74291992 -0.0612793 C8.41886389 -0.06535482 9.09480785 -0.06943035 9.79123497 -0.07362938 C13.36960927 -0.09448933 16.94794524 -0.10879078 20.52636719 -0.11816406 C24.21867292 -0.12922282 27.91037503 -0.16361566 31.60246754 -0.20333576 C34.44468794 -0.22950944 37.28676476 -0.23785654 40.12909508 -0.24144554 C41.48984538 -0.2463104 42.8505893 -0.25792176 44.21122169 -0.27648354 C46.11853089 -0.30088366 48.02613384 -0.29748929 49.93359375 -0.29296875 C51.01788162 -0.29883499 52.10216949 -0.30470123 53.21931458 -0.31074524 C56.86654226 0.29400752 58.52626077 1.63652802 61.16088867 4.17700195 C63.01944149 7.89410759 62.73997307 12.12977477 62.16088867 16.17700195 C59.63412829 19.52325219 58.12155325 20.85678043 54.16088867 22.17700195 C52.301163 22.28027641 50.43798776 22.32552598 48.57543945 22.33813477 C46.85818161 22.35254608 46.85818161 22.35254608 45.10623169 22.36724854 C43.86872162 22.37149841 42.63121155 22.37574829 41.35620117 22.38012695 C39.44930008 22.38867706 39.44930008 22.38867706 37.50387573 22.3973999 C34.81219909 22.40685329 32.12063404 22.41374851 29.42895508 22.41723633 C25.98676068 22.42271915 22.54496222 22.44674695 19.10289192 22.47520828 C15.81235844 22.49835658 12.52180468 22.50028565 9.23120117 22.50512695 C7.38100876 22.52364716 7.38100876 22.52364716 5.49343872 22.5425415 C4.34229584 22.53954041 3.19115295 22.53653931 2.00512695 22.53344727 C0.99491486 22.5370929 -0.01529724 22.54073853 -1.05612183 22.54449463 C-5.07648676 22.01360701 -7.67463807 20.22101246 -10.65161133 17.55200195 C-12.51322454 13.82877554 -12.51453553 10.25133504 -11.83911133 6.17700195 C-8.45295288 0.75914844 -6.15716429 0.05602398 0 0 Z " fill="#000000" transform="translate(65.839111328125,255.822998046875)"/>
</svg>
